<svg width="36" height="36" viewBox="0 0 36 36" fill="none" xmlns="http://www.w3.org/2000/svg">
<path d="M18.0006 15.3961C16.567 15.3961 15.3971 16.566 15.3971 17.9996C15.3971 19.4332 16.567 20.6031 18.0006 20.6031C19.4342 20.6031 20.6041 19.4332 20.6041 17.9996C20.6041 16.566 19.4342 15.3961 18.0006 15.3961ZM25.8092 17.9996C25.8092 16.9215 25.8189 15.8531 25.7584 14.7769C25.6978 13.5269 25.4127 12.4176 24.4986 11.5035C23.5826 10.5875 22.4752 10.3043 21.2252 10.2437C20.1471 10.1832 19.0787 10.193 18.0025 10.193C16.9244 10.193 15.8561 10.1832 14.7799 10.2437C13.5299 10.3043 12.4205 10.5894 11.5064 11.5035C10.5904 12.4195 10.3072 13.5269 10.2467 14.7769C10.1861 15.8551 10.1959 16.9234 10.1959 17.9996C10.1959 19.0758 10.1861 20.1461 10.2467 21.2223C10.3072 22.4723 10.5924 23.5816 11.5064 24.4957C12.4225 25.4117 13.5299 25.6949 14.7799 25.7555C15.858 25.816 16.9264 25.8062 18.0025 25.8062C19.0807 25.8062 20.149 25.816 21.2252 25.7555C22.4752 25.6949 23.5846 25.4098 24.4986 24.4957C25.4146 23.5797 25.6978 22.4723 25.7584 21.2223C25.8209 20.1461 25.8092 19.0777 25.8092 17.9996ZM18.0006 22.0055C15.7838 22.0055 13.9947 20.2164 13.9947 17.9996C13.9947 15.7828 15.7838 13.9937 18.0006 13.9937C20.2174 13.9937 22.0064 15.7828 22.0064 17.9996C22.0064 20.2164 20.2174 22.0055 18.0006 22.0055ZM22.1705 14.7652C21.6529 14.7652 21.235 14.3473 21.235 13.8297C21.235 13.3121 21.6529 12.8941 22.1705 12.8941C22.6881 12.8941 23.1061 13.3121 23.1061 13.8297C23.1062 13.9526 23.0821 14.0743 23.0351 14.1879C22.9882 14.3015 22.9193 14.4047 22.8324 14.4916C22.7455 14.5785 22.6423 14.6474 22.5287 14.6943C22.4151 14.7413 22.2934 14.7654 22.1705 14.7652Z" fill="#BCB9B9"/>
<rect x="0.5" y="0.5" width="35" height="35" rx="17.5" stroke="#BCB9B9"/>
</svg>
