<svg width="36" height="36" viewBox="0 0 36 36" fill="none" xmlns="http://www.w3.org/2000/svg">
<path d="M26.127 12.9668C25.5293 13.2246 24.8789 13.4102 24.209 13.4824C24.9045 13.0692 25.4254 12.4164 25.6738 11.6465C25.0212 12.0348 24.3062 12.307 23.5605 12.4512C23.2489 12.118 22.872 11.8526 22.4533 11.6715C22.0346 11.4904 21.5831 11.3974 21.127 11.3984C19.2812 11.3984 17.7969 12.8945 17.7969 14.7305C17.7969 14.9883 17.8281 15.2461 17.8789 15.4941C15.1152 15.3496 12.6504 14.0293 11.0117 12.0078C10.7131 12.5178 10.5567 13.0985 10.5586 13.6895C10.5586 14.8457 11.1465 15.8652 12.043 16.4649C11.5147 16.444 10.9987 16.2988 10.5371 16.041V16.082C10.5371 17.7012 11.6816 19.043 13.207 19.3516C12.9206 19.426 12.626 19.464 12.3301 19.4649C12.1133 19.4649 11.9082 19.4434 11.7012 19.4141C12.123 20.7344 13.3516 21.6934 14.8145 21.7246C13.6699 22.6211 12.2363 23.1484 10.6797 23.1484C10.4004 23.1484 10.1426 23.1387 9.875 23.1074C11.3516 24.0547 13.1035 24.6016 14.9902 24.6016C21.1152 24.6016 24.4668 19.5274 24.4668 15.1231C24.4668 14.9785 24.4668 14.834 24.457 14.6895C25.1055 14.2149 25.6738 13.627 26.127 12.9668Z" fill="#BCB9B9"/>
<rect x="0.5" y="0.5" width="35" height="35" rx="17.5" stroke="#BCB9B9"/>
</svg>
